<svg width="25" height="26" viewBox="0 0 25 26" fill="none" xmlns="http://www.w3.org/2000/svg">
<path d="M12.5 16C14.1569 16 15.5 14.6569 15.5 13C15.5 11.3431 14.1569 10 12.5 10C10.8431 10 9.5 11.3431 9.5 13C9.5 14.6569 10.8431 16 12.5 16Z" stroke="white" stroke-width="3" stroke-linecap="round" stroke-linejoin="round"/>
<path d="M19.9 16C19.7669 16.3016 19.7272 16.6362 19.786 16.9606C19.8448 17.285 19.9995 17.5843 20.23 17.82L20.29 17.88C20.476 18.0657 20.6235 18.2863 20.7241 18.5291C20.8248 18.7719 20.8766 19.0322 20.8766 19.295C20.8766 19.5578 20.8248 19.8181 20.7241 20.0609C20.6235 20.3037 20.476 20.5243 20.29 20.71C20.1043 20.896 19.8837 21.0435 19.6409 21.1441C19.3981 21.2448 19.1378 21.2966 18.875 21.2966C18.6122 21.2966 18.3519 21.2448 18.1091 21.1441C17.8663 21.0435 17.6457 20.896 17.46 20.71L17.4 20.65C17.1643 20.4195 16.865 20.2648 16.5406 20.206C16.2162 20.1472 15.8816 20.1869 15.58 20.32C15.2842 20.4468 15.032 20.6572 14.8543 20.9255C14.6766 21.1938 14.5813 21.5082 14.58 21.83V22C14.58 22.5304 14.3693 23.0391 13.9942 23.4142C13.6191 23.7893 13.1104 24 12.58 24C12.0496 24 11.5409 23.7893 11.1658 23.4142C10.7907 23.0391 10.58 22.5304 10.58 22V21.91C10.5723 21.579 10.4651 21.258 10.2725 20.9887C10.0799 20.7194 9.81074 20.5143 9.5 20.4C9.19838 20.2669 8.86381 20.2272 8.53941 20.286C8.21502 20.3448 7.91568 20.4995 7.68 20.73L7.62 20.79C7.43425 20.976 7.21368 21.1235 6.97088 21.2241C6.72808 21.3248 6.46783 21.3766 6.205 21.3766C5.94217 21.3766 5.68192 21.3248 5.43912 21.2241C5.19632 21.1235 4.97575 20.976 4.79 20.79C4.60405 20.6043 4.45653 20.3837 4.35588 20.1409C4.25523 19.8981 4.20343 19.6378 4.20343 19.375C4.20343 19.1122 4.25523 18.8519 4.35588 18.6091C4.45653 18.3663 4.60405 18.1457 4.79 17.96L4.85 17.9C5.08054 17.6643 5.23519 17.365 5.294 17.0406C5.35282 16.7162 5.31312 16.3816 5.18 16.08C5.05324 15.7842 4.84276 15.532 4.57447 15.3543C4.30618 15.1766 3.99179 15.0813 3.67 15.08H3.5C2.96957 15.08 2.46086 14.8693 2.08579 14.4942C1.71071 14.1191 1.5 13.6104 1.5 13.08C1.5 12.5496 1.71071 12.0409 2.08579 11.6658C2.46086 11.2907 2.96957 11.08 3.5 11.08H3.59C3.92099 11.0723 4.242 10.9651 4.5113 10.7725C4.78059 10.5799 4.98572 10.3107 5.1 10C5.23312 9.69838 5.27282 9.36381 5.214 9.03941C5.15519 8.71502 5.00054 8.41568 4.77 8.18L4.71 8.12C4.52405 7.93425 4.37653 7.71368 4.27588 7.47088C4.17523 7.22808 4.12343 6.96783 4.12343 6.705C4.12343 6.44217 4.17523 6.18192 4.27588 5.93912C4.37653 5.69632 4.52405 5.47575 4.71 5.29C4.89575 5.10405 5.11632 4.95653 5.35912 4.85588C5.60192 4.75523 5.86217 4.70343 6.125 4.70343C6.38783 4.70343 6.64808 4.75523 6.89088 4.85588C7.13368 4.95653 7.35425 5.10405 7.54 5.29L7.6 5.35C7.83568 5.58054 8.13502 5.73519 8.45941 5.794C8.78381 5.85282 9.11838 5.81312 9.42 5.68H9.5C9.79577 5.55324 10.048 5.34276 10.2257 5.07447C10.4034 4.80618 10.4987 4.49179 10.5 4.17V4C10.5 3.46957 10.7107 2.96086 11.0858 2.58579C11.4609 2.21071 11.9696 2 12.5 2C13.0304 2 13.5391 2.21071 13.9142 2.58579C14.2893 2.96086 14.5 3.46957 14.5 4V4.09C14.5013 4.41179 14.5966 4.72618 14.7743 4.99447C14.952 5.26276 15.2042 5.47324 15.5 5.6C15.8016 5.73312 16.1362 5.77282 16.4606 5.714C16.785 5.65519 17.0843 5.50054 17.32 5.27L17.38 5.21C17.5657 5.02405 17.7863 4.87653 18.0291 4.77588C18.2719 4.67523 18.5322 4.62343 18.795 4.62343C19.0578 4.62343 19.3181 4.67523 19.5609 4.77588C19.8037 4.87653 20.0243 5.02405 20.21 5.21C20.396 5.39575 20.5435 5.61632 20.6441 5.85912C20.7448 6.10192 20.7966 6.36217 20.7966 6.625C20.7966 6.88783 20.7448 7.14808 20.6441 7.39088C20.5435 7.63368 20.396 7.85425 20.21 8.04L20.15 8.1C19.9195 8.33568 19.7648 8.63502 19.706 8.95941C19.6472 9.28381 19.6869 9.61838 19.82 9.92V10C19.9468 10.2958 20.1572 10.548 20.4255 10.7257C20.6938 10.9034 21.0082 10.9987 21.33 11H21.5C22.0304 11 22.5391 11.2107 22.9142 11.5858C23.2893 11.9609 23.5 12.4696 23.5 13C23.5 13.5304 23.2893 14.0391 22.9142 14.4142C22.5391 14.7893 22.0304 15 21.5 15H21.41C21.0882 15.0013 20.7738 15.0966 20.5055 15.2743C20.2372 15.452 20.0268 15.7042 19.9 16Z" stroke="white" stroke-width="3" stroke-linecap="round" stroke-linejoin="round"/>
</svg>
